<?xml version="1.0" encoding="utf-8"?>
<!-- Generator: Adobe Illustrator 16.0.0, SVG Export Plug-In . SVG Version: 6.00 Build 0)  -->
<!DOCTYPE svg PUBLIC "-//W3C//DTD SVG 1.1//EN" "http://www.w3.org/Graphics/SVG/1.1/DTD/svg11.dtd">
<svg version="1.1" id="Ebene_1" xmlns="http://www.w3.org/2000/svg" xmlns:xlink="http://www.w3.org/1999/xlink" x="0px" y="0px"
	 width="700px" height="135.453px" viewBox="0 0 700 135.453" enable-background="new 0 0 700 135.453" xml:space="preserve">
<g>
	<g>
		<defs>
			<rect id="SVGID_1_" x="195.491" width="133.221" height="135.514"/>
		</defs>
		<clipPath id="SVGID_2_">
			<use xlink:href="#SVGID_1_"  overflow="visible"/>
		</clipPath>
		
			<linearGradient id="SVGID_3_" gradientUnits="userSpaceOnUse" x1="-39.188" y1="283.8672" x2="-38.1875" y2="283.8672" gradientTransform="matrix(144.4141 0 0 144.4141 5854.7627 -40926.6094)">
			<stop  offset="0" style="stop-color:#FFFFFF"/>
			<stop  offset="0.0832" style="stop-color:#F5F6FC"/>
			<stop  offset="0.2346" style="stop-color:#D8DFF2"/>
			<stop  offset="0.4368" style="stop-color:#A9BAE1"/>
			<stop  offset="0.6792" style="stop-color:#618BC8"/>
			<stop  offset="0.9212" style="stop-color:#0060AC"/>
			<stop  offset="1" style="stop-color:#0060AC"/>
		</linearGradient>
		<rect x="195.491" clip-path="url(#SVGID_2_)" fill="url(#SVGID_3_)" width="133.221" height="135.514"/>
	</g>
	<g>
		<defs>
			<polygon id="SVGID_4_" points="125.742,0 125.742,135.469 296.265,135.469 217.26,57.507 276.524,0 			"/>
		</defs>
		<clipPath id="SVGID_5_">
			<use xlink:href="#SVGID_4_"  overflow="visible"/>
		</clipPath>
		
			<linearGradient id="SVGID_6_" gradientUnits="userSpaceOnUse" x1="-39.1841" y1="283.7715" x2="-38.1841" y2="283.7715" gradientTransform="matrix(170.5229 0 0 170.5229 6807.5635 -48321.8438)">
			<stop  offset="0" style="stop-color:#FFFFFF"/>
			<stop  offset="0.0471" style="stop-color:#F0F2FA"/>
			<stop  offset="0.2384" style="stop-color:#B3C1E4"/>
			<stop  offset="0.4196" style="stop-color:#7C9BD1"/>
			<stop  offset="0.5854" style="stop-color:#4A7FC1"/>
			<stop  offset="0.7328" style="stop-color:#186DB6"/>
			<stop  offset="0.8563" style="stop-color:#0064AF"/>
			<stop  offset="0.9409" style="stop-color:#0060AC"/>
			<stop  offset="1" style="stop-color:#0060AC"/>
		</linearGradient>
		<rect x="125.742" clip-path="url(#SVGID_5_)" fill="url(#SVGID_6_)" width="170.523" height="135.469"/>
	</g>
	<g>
		<defs>
			<polygon id="SVGID_7_" points="0,-0.004 0,135.469 150.305,135.469 150.305,88.827 185.167,88.827 185.166,57.202 
				150.305,57.202 150.305,34.461 204.152,34.461 204.152,-0.004 			"/>
		</defs>
		<clipPath id="SVGID_8_">
			<use xlink:href="#SVGID_7_"  overflow="visible"/>
		</clipPath>
		
			<linearGradient id="SVGID_9_" gradientUnits="userSpaceOnUse" x1="-39.1821" y1="283.6836" x2="-38.1821" y2="283.6836" gradientTransform="matrix(204.1518 0 0 204.1518 7999.0869 -57847.0313)">
			<stop  offset="0" style="stop-color:#FFFFFF"/>
			<stop  offset="0.266" style="stop-color:#FFFFFF"/>
			<stop  offset="0.5025" style="stop-color:#AFBFE3"/>
			<stop  offset="0.7389" style="stop-color:#5A88C6"/>
			<stop  offset="0.9045" style="stop-color:#016AB3"/>
			<stop  offset="0.9852" style="stop-color:#0060AC"/>
			<stop  offset="1" style="stop-color:#0060AC"/>
		</linearGradient>
		<rect y="-0.004" clip-path="url(#SVGID_8_)" fill="url(#SVGID_9_)" width="204.152" height="135.473"/>
	</g>
	<g>
		<defs>
			<path id="SVGID_10_" d="M58.619,0.004v-0.009H0v135.458h58.944c31.423,0,56.889-30.355,56.889-67.751
				c0-37.395-25.473-67.707-56.896-67.707C58.83-0.005,58.725,0.004,58.619,0.004"/>
		</defs>
		<clipPath id="SVGID_11_">
			<use xlink:href="#SVGID_10_"  overflow="visible"/>
		</clipPath>
		
			<linearGradient id="SVGID_12_" gradientUnits="userSpaceOnUse" x1="-39.1934" y1="284.0205" x2="-38.1934" y2="284.0205" gradientTransform="matrix(115.833 0 0 115.833 4539.8711 -32831.2383)">
			<stop  offset="0" style="stop-color:#9AAFDB"/>
			<stop  offset="0.1366" style="stop-color:#92A9D8"/>
			<stop  offset="0.3607" style="stop-color:#7999CF"/>
			<stop  offset="0.6445" style="stop-color:#4C80C1"/>
			<stop  offset="0.9741" style="stop-color:#0063AE"/>
			<stop  offset="1" style="stop-color:#0060AC"/>
		</linearGradient>
		<rect y="-0.005" clip-path="url(#SVGID_11_)" fill="url(#SVGID_12_)" width="115.833" height="135.458"/>
	</g>
	<g>
		<path d="M349.549,6.407h7.925c1.787,0,3.149,0.137,4.087,0.41c1.26,0.371,2.339,1.031,3.237,1.978
			c0.898,0.947,1.582,2.107,2.051,3.479s0.703,3.064,0.703,5.076c0,1.767-0.22,3.291-0.659,4.57c-0.537,1.562-1.304,2.827-2.3,3.794
			c-0.752,0.732-1.768,1.304-3.047,1.714c-0.957,0.302-2.236,0.454-3.838,0.454h-8.159V6.407z M353.885,10.04v14.224h3.237
			c1.211,0,2.085-0.069,2.622-0.205c0.702-0.176,1.287-0.474,1.75-0.894c0.464-0.42,0.843-1.111,1.136-2.073
			c0.293-0.962,0.439-2.273,0.439-3.933c0-1.66-0.146-2.934-0.439-3.823c-0.293-0.889-0.703-1.582-1.23-2.08
			c-0.527-0.498-1.196-0.835-2.007-1.011c-0.605-0.137-1.792-0.205-3.56-0.205H353.885z"/>
		<path d="M380.208,22.931l4.102,0.689c-0.527,1.504-1.36,2.649-2.498,3.435c-1.138,0.786-2.561,1.179-4.27,1.179
			c-2.705,0-4.707-0.884-6.006-2.651c-1.025-1.416-1.538-3.204-1.538-5.362c0-2.578,0.673-4.597,2.021-6.057
			c1.348-1.46,3.052-2.19,5.112-2.19c2.314,0,4.141,0.764,5.479,2.293c1.338,1.528,1.979,3.869,1.919,7.024h-10.313
			c0.029,1.22,0.361,2.17,0.997,2.849c0.634,0.678,1.425,1.018,2.372,1.018c0.645,0,1.187-0.176,1.626-0.528
			C379.651,24.278,379.983,23.711,380.208,22.931 M380.442,18.771c-0.029-1.191-0.337-2.097-0.923-2.717
			c-0.586-0.62-1.299-0.93-2.139-0.93c-0.898,0-1.641,0.327-2.227,0.981s-0.874,1.543-0.864,2.666H380.442z"/>
		<path d="M398.123,27.882v-2.329c-0.566,0.83-1.313,1.484-2.234,1.963c-0.923,0.478-1.896,0.718-2.922,0.718
			c-1.045,0-1.982-0.23-2.813-0.689s-1.431-1.103-1.803-1.934c-0.37-0.83-0.556-1.977-0.556-3.442v-9.844h4.116v7.149
			c0,2.187,0.075,3.528,0.227,4.021c0.151,0.493,0.428,0.884,0.828,1.172s0.908,0.432,1.523,0.432c0.703,0,1.333-0.193,1.89-0.579
			c0.556-0.386,0.938-0.864,1.143-1.435c0.204-0.572,0.308-1.971,0.308-4.197v-6.563h4.116v15.557H398.123z"/>
		<path d="M413.343,12.325v3.281h-2.813v6.271c0,1.269,0.026,2.009,0.08,2.219s0.176,0.383,0.366,0.52s0.423,0.205,0.696,0.205
			c0.381,0,0.933-0.132,1.655-0.395l0.352,3.193c-0.957,0.41-2.041,0.615-3.252,0.615c-0.742,0-1.411-0.124-2.007-0.373
			s-1.033-0.572-1.312-0.967c-0.278-0.396-0.471-0.93-0.578-1.604c-0.088-0.479-0.132-1.445-0.132-2.901v-6.782h-1.89v-3.281h1.89
			V9.234l4.131-2.402v5.493H413.343z"/>
		<path d="M414.749,23.443l4.131-0.63c0.176,0.801,0.532,1.409,1.069,1.824s1.289,0.622,2.256,0.622
			c1.064,0,1.865-0.195,2.402-0.586c0.361-0.273,0.542-0.639,0.542-1.098c0-0.313-0.098-0.571-0.293-0.777
			c-0.205-0.195-0.664-0.376-1.378-0.542c-3.319-0.732-5.424-1.401-6.313-2.006c-1.23-0.84-1.846-2.007-1.846-3.501
			c0-1.348,0.532-2.481,1.597-3.399s2.715-1.377,4.951-1.377c2.129,0,3.711,0.347,4.746,1.04c1.035,0.694,1.748,1.719,2.139,3.076
			l-3.882,0.718c-0.166-0.605-0.481-1.069-0.945-1.391c-0.464-0.323-1.125-0.484-1.984-0.484c-1.084,0-1.86,0.152-2.329,0.454
			c-0.313,0.215-0.469,0.494-0.469,0.835c0,0.293,0.137,0.542,0.41,0.747c0.371,0.274,1.652,0.66,3.845,1.158
			s3.724,1.108,4.593,1.831c0.859,0.732,1.289,1.753,1.289,3.061c0,1.426-0.596,2.652-1.787,3.677s-2.954,1.538-5.288,1.538
			c-2.119,0-3.797-0.43-5.032-1.289C415.937,26.085,415.13,24.918,414.749,23.443"/>
		<path d="M446.448,16.925l-4.058,0.732c-0.137-0.81-0.447-1.42-0.931-1.831c-0.483-0.41-1.11-0.615-1.882-0.615
			c-1.026,0-1.844,0.354-2.454,1.062c-0.611,0.708-0.915,1.892-0.915,3.552c0,1.846,0.31,3.15,0.929,3.912
			c0.621,0.761,1.454,1.142,2.498,1.142c0.782,0,1.422-0.222,1.92-0.666c0.497-0.445,0.85-1.209,1.055-2.293l4.043,0.689
			c-0.42,1.855-1.227,3.256-2.417,4.204c-1.191,0.947-2.788,1.421-4.79,1.421c-2.275,0-4.09-0.718-5.442-2.154
			c-1.353-1.435-2.028-3.423-2.028-5.962c0-2.568,0.679-4.568,2.035-5.998c1.358-1.431,3.194-2.146,5.509-2.146
			c1.895,0,3.4,0.408,4.519,1.223S445.96,15.255,446.448,16.925"/>
		<path d="M453.67,6.407v7.896c1.328-1.553,2.915-2.33,4.761-2.33c0.947,0,1.801,0.176,2.563,0.528
			c0.762,0.351,1.335,0.801,1.721,1.347c0.386,0.547,0.649,1.153,0.791,1.817c0.142,0.664,0.213,1.694,0.213,3.091v9.126h-4.116
			v-8.218c0-1.631-0.079-2.666-0.234-3.106c-0.156-0.439-0.433-0.788-0.828-1.047s-0.892-0.388-1.486-0.388
			c-0.684,0-1.294,0.166-1.831,0.498s-0.931,0.832-1.18,1.501s-0.373,1.658-0.373,2.967v7.793h-4.116V6.407H453.67z"/>
		<path d="M476.902,22.931l4.102,0.689c-0.527,1.504-1.36,2.649-2.498,3.435c-1.138,0.786-2.561,1.179-4.27,1.179
			c-2.705,0-4.707-0.884-6.006-2.651c-1.025-1.416-1.538-3.204-1.538-5.362c0-2.578,0.673-4.597,2.021-6.057
			c1.348-1.46,3.052-2.19,5.111-2.19c2.315,0,4.142,0.764,5.479,2.293c1.338,1.528,1.978,3.869,1.919,7.024h-10.313
			c0.029,1.22,0.361,2.17,0.996,2.849c0.635,0.678,1.426,1.018,2.373,1.018c0.645,0,1.187-0.176,1.626-0.528
			C476.346,24.278,476.678,23.711,476.902,22.931 M477.137,18.771c-0.029-1.191-0.337-2.097-0.923-2.717
			c-0.586-0.62-1.299-0.93-2.139-0.93c-0.898,0-1.641,0.327-2.227,0.981s-0.874,1.543-0.864,2.666H477.137z"/>
		<path d="M483.128,23.443l4.131-0.63c0.176,0.801,0.532,1.409,1.069,1.824s1.289,0.622,2.256,0.622
			c1.065,0,1.865-0.195,2.402-0.586c0.361-0.273,0.542-0.639,0.542-1.098c0-0.313-0.098-0.571-0.293-0.777
			c-0.205-0.195-0.664-0.376-1.377-0.542c-3.32-0.732-5.425-1.401-6.313-2.006c-1.23-0.84-1.846-2.007-1.846-3.501
			c0-1.348,0.532-2.481,1.597-3.399s2.715-1.377,4.951-1.377c2.129,0,3.711,0.347,4.746,1.04c1.035,0.694,1.748,1.719,2.139,3.076
			l-3.882,0.718c-0.166-0.605-0.481-1.069-0.944-1.391c-0.465-0.323-1.126-0.484-1.985-0.484c-1.084,0-1.86,0.152-2.329,0.454
			c-0.313,0.215-0.469,0.494-0.469,0.835c0,0.293,0.137,0.542,0.41,0.747c0.371,0.274,1.652,0.66,3.846,1.158
			c2.191,0.498,3.723,1.108,4.592,1.831c0.859,0.732,1.289,1.753,1.289,3.061c0,1.426-0.596,2.652-1.787,3.677
			s-2.954,1.538-5.288,1.538c-2.119,0-3.797-0.43-5.032-1.289C484.315,26.085,483.509,24.918,483.128,23.443"/>
		<polygon points="349.593,61.382 349.593,39.907 364.314,39.907 364.314,43.54 353.929,43.54 353.929,48.623 362.894,48.623 
			362.894,52.256 353.929,52.256 353.929,61.382 		"/>
		<path d="M366.907,53.383c0-1.367,0.337-2.69,1.011-3.969c0.674-1.28,1.628-2.256,2.863-2.93c1.235-0.674,2.616-1.011,4.139-1.011
			c2.354,0,4.282,0.764,5.786,2.293c1.504,1.528,2.256,3.459,2.256,5.793c0,2.354-0.76,4.304-2.278,5.852
			c-1.519,1.548-3.43,2.322-5.734,2.322c-1.426,0-2.786-0.322-4.08-0.967c-1.294-0.644-2.277-1.589-2.951-2.834
			C367.244,56.687,366.907,55.17,366.907,53.383 M371.126,53.604c0,1.543,0.366,2.725,1.099,3.545s1.636,1.23,2.71,1.23
			s1.975-0.41,2.702-1.23s1.093-2.012,1.093-3.574c0-1.524-0.365-2.696-1.093-3.516c-0.728-0.82-1.628-1.23-2.702-1.23
			s-1.978,0.41-2.71,1.23C371.492,50.878,371.126,52.061,371.126,53.604"/>
		<path d="M390.125,61.382h-4.116V45.825h3.823v2.212c0.654-1.045,1.242-1.733,1.765-2.065c0.522-0.332,1.116-0.498,1.78-0.498
			c0.938,0,1.841,0.259,2.71,0.776l-1.275,3.589c-0.692-0.449-1.337-0.674-1.933-0.674c-0.576,0-1.064,0.159-1.465,0.476
			c-0.4,0.318-0.716,0.891-0.945,1.721c-0.229,0.831-0.344,2.569-0.344,5.215V61.382z"/>
		<path d="M396.409,56.943l4.131-0.63c0.176,0.801,0.532,1.409,1.069,1.824s1.289,0.622,2.256,0.622
			c1.065,0,1.865-0.195,2.402-0.586c0.361-0.273,0.542-0.639,0.542-1.098c0-0.313-0.098-0.571-0.293-0.777
			c-0.205-0.195-0.664-0.376-1.377-0.542c-3.32-0.732-5.425-1.401-6.313-2.006c-1.229-0.84-1.846-2.007-1.846-3.501
			c0-1.348,0.532-2.481,1.597-3.399s2.715-1.377,4.951-1.377c2.129,0,3.711,0.347,4.746,1.04c1.035,0.694,1.748,1.719,2.139,3.076
			l-3.882,0.718c-0.166-0.605-0.481-1.069-0.945-1.391c-0.464-0.323-1.125-0.484-1.984-0.484c-1.084,0-1.86,0.152-2.329,0.454
			c-0.313,0.215-0.469,0.494-0.469,0.835c0,0.293,0.137,0.542,0.41,0.747c0.371,0.274,1.652,0.66,3.845,1.158
			s3.724,1.108,4.593,1.831c0.859,0.732,1.289,1.753,1.289,3.061c0,1.426-0.596,2.652-1.787,3.677s-2.954,1.538-5.288,1.538
			c-2.119,0-3.797-0.43-5.032-1.289S396.79,58.418,396.409,56.943"/>
		<path d="M428.108,50.425l-4.058,0.732c-0.137-0.81-0.447-1.42-0.931-1.831c-0.483-0.41-1.11-0.615-1.882-0.615
			c-1.026,0-1.844,0.354-2.454,1.062s-0.915,1.892-0.915,3.552c0,1.846,0.31,3.15,0.93,3.912c0.62,0.761,1.453,1.142,2.497,1.142
			c0.782,0,1.422-0.222,1.92-0.666c0.498-0.445,0.85-1.209,1.055-2.293l4.043,0.689c-0.42,1.855-1.227,3.256-2.417,4.204
			c-1.191,0.947-2.788,1.421-4.79,1.421c-2.275,0-4.09-0.718-5.442-2.154c-1.353-1.435-2.028-3.423-2.028-5.962
			c0-2.568,0.679-4.568,2.035-5.998c1.358-1.431,3.194-2.146,5.509-2.146c1.895,0,3.4,0.408,4.519,1.223
			S427.62,48.755,428.108,50.425"/>
		<path d="M435.33,39.907v7.896c1.328-1.553,2.915-2.33,4.761-2.33c0.947,0,1.801,0.176,2.563,0.528
			c0.762,0.351,1.335,0.801,1.721,1.347c0.386,0.547,0.649,1.153,0.791,1.817c0.142,0.664,0.213,1.694,0.213,3.091v9.126h-4.116
			v-8.218c0-1.631-0.078-2.666-0.234-3.106c-0.156-0.439-0.433-0.788-0.828-1.047s-0.891-0.388-1.486-0.388
			c-0.684,0-1.294,0.166-1.831,0.498s-0.931,0.832-1.18,1.501s-0.373,1.658-0.373,2.967v7.793h-4.116V39.907H435.33z"/>
		<path d="M459.793,61.382v-2.329c-0.566,0.83-1.312,1.484-2.234,1.963c-0.923,0.478-1.896,0.718-2.922,0.718
			c-1.045,0-1.982-0.23-2.813-0.689s-1.431-1.103-1.802-1.934c-0.371-0.83-0.557-1.977-0.557-3.442v-9.844h4.116v7.149
			c0,2.187,0.075,3.528,0.227,4.021c0.151,0.493,0.428,0.884,0.828,1.172s0.908,0.432,1.523,0.432c0.703,0,1.333-0.193,1.89-0.579
			c0.557-0.386,0.938-0.864,1.143-1.435c0.205-0.572,0.308-1.971,0.308-4.197v-6.563h4.116v15.557H459.793z"/>
		<path d="M482.029,61.382h-4.116v-7.939c0-1.68-0.088-2.767-0.264-3.26c-0.176-0.493-0.461-0.876-0.857-1.15
			c-0.395-0.273-0.871-0.41-1.428-0.41c-0.713,0-1.353,0.196-1.919,0.586c-0.566,0.391-0.955,0.908-1.165,1.553
			c-0.21,0.644-0.314,1.836-0.314,3.574v7.046h-4.116V45.825h3.823v2.286c1.357-1.758,3.066-2.637,5.127-2.637
			c0.908,0,1.738,0.163,2.49,0.491c0.752,0.327,1.32,0.744,1.707,1.252c0.385,0.508,0.653,1.084,0.805,1.728
			c0.151,0.645,0.228,1.568,0.228,2.769V61.382z"/>
		<path d="M485.823,62.407l4.702,0.571c0.078,0.547,0.259,0.923,0.542,1.128c0.391,0.293,1.006,0.44,1.846,0.44
			c1.074,0,1.88-0.161,2.417-0.484c0.361-0.215,0.635-0.561,0.82-1.04c0.127-0.342,0.19-0.971,0.19-1.889v-2.271
			c-1.23,1.68-2.783,2.52-4.658,2.52c-2.09,0-3.744-0.884-4.966-2.652c-0.957-1.396-1.436-3.135-1.436-5.215
			c0-2.607,0.627-4.599,1.883-5.976c1.254-1.377,2.814-2.066,4.68-2.066c1.924,0,3.51,0.845,4.76,2.535v-2.183h3.854v13.96
			c0,1.836-0.151,3.208-0.454,4.116c-0.303,0.908-0.728,1.621-1.274,2.139c-0.547,0.517-1.277,0.923-2.189,1.216
			c-0.914,0.293-2.068,0.439-3.465,0.439c-2.638,0-4.507-0.452-5.61-1.355s-1.655-2.048-1.655-3.435
			C485.809,62.768,485.813,62.602,485.823,62.407 M489.5,53.281c0,1.65,0.319,2.859,0.959,3.625c0.64,0.767,1.429,1.15,2.366,1.15
			c1.006,0,1.855-0.393,2.549-1.179c0.693-0.786,1.04-1.95,1.04-3.493c0-1.612-0.332-2.808-0.996-3.589
			c-0.664-0.782-1.504-1.172-2.521-1.172c-0.985,0-1.799,0.383-2.438,1.15C489.819,50.54,489.5,51.709,489.5,53.281"/>
		<path d="M503.079,56.943l4.131-0.63c0.176,0.801,0.532,1.409,1.069,1.824s1.289,0.622,2.256,0.622
			c1.065,0,1.865-0.195,2.402-0.586c0.361-0.273,0.542-0.639,0.542-1.098c0-0.313-0.098-0.571-0.293-0.777
			c-0.205-0.195-0.664-0.376-1.377-0.542c-3.32-0.732-5.425-1.401-6.313-2.006c-1.23-0.84-1.846-2.007-1.846-3.501
			c0-1.348,0.532-2.481,1.597-3.399s2.715-1.377,4.951-1.377c2.129,0,3.711,0.347,4.746,1.04c1.035,0.694,1.748,1.719,2.139,3.076
			l-3.882,0.718c-0.166-0.605-0.481-1.069-0.944-1.391c-0.465-0.323-1.126-0.484-1.985-0.484c-1.084,0-1.86,0.152-2.329,0.454
			c-0.313,0.215-0.469,0.494-0.469,0.835c0,0.293,0.137,0.542,0.41,0.747c0.371,0.274,1.652,0.66,3.846,1.158
			c2.191,0.498,3.723,1.108,4.592,1.831c0.859,0.732,1.289,1.753,1.289,3.061c0,1.426-0.596,2.652-1.787,3.677
			s-2.954,1.538-5.288,1.538c-2.119,0-3.797-0.43-5.032-1.289C504.267,59.585,503.46,58.418,503.079,56.943"/>
		<path d="M519.559,61.382v-3.208l5.83-6.694c0.957-1.094,1.665-1.87,2.124-2.329c-0.479,0.029-1.108,0.048-1.891,0.058
			l-5.492,0.029v-3.413h12.861v2.915l-5.947,6.856l-2.095,2.27c1.143-0.068,1.851-0.102,2.124-0.102h6.372v3.618H519.559z"/>
		<path d="M545.223,56.431l4.102,0.689c-0.527,1.504-1.36,2.649-2.498,3.435c-1.138,0.786-2.561,1.179-4.27,1.179
			c-2.705,0-4.707-0.884-6.006-2.651c-1.025-1.416-1.538-3.204-1.538-5.362c0-2.578,0.673-4.597,2.021-6.057
			c1.348-1.46,3.052-2.19,5.111-2.19c2.315,0,4.142,0.764,5.479,2.293c1.338,1.528,1.978,3.869,1.919,7.024h-10.313
			c0.029,1.22,0.361,2.17,0.996,2.849c0.635,0.678,1.426,1.018,2.373,1.018c0.645,0,1.187-0.176,1.626-0.528
			C544.666,57.778,544.998,57.211,545.223,56.431 M545.457,52.271c-0.029-1.191-0.337-2.097-0.923-2.717
			c-0.586-0.62-1.299-0.93-2.139-0.93c-0.898,0-1.641,0.327-2.227,0.981s-0.874,1.543-0.864,2.666H545.457z"/>
		<path d="M567.049,61.382h-4.116v-7.939c0-1.68-0.088-2.767-0.264-3.26c-0.176-0.493-0.461-0.876-0.857-1.15
			c-0.395-0.273-0.871-0.41-1.428-0.41c-0.713,0-1.353,0.196-1.919,0.586c-0.566,0.391-0.955,0.908-1.165,1.553
			c-0.21,0.644-0.314,1.836-0.314,3.574v7.046h-4.116V45.825h3.823v2.286c1.357-1.758,3.066-2.637,5.127-2.637
			c0.908,0,1.738,0.163,2.49,0.491c0.752,0.327,1.32,0.744,1.707,1.252c0.385,0.508,0.653,1.084,0.805,1.728
			c0.151,0.645,0.228,1.568,0.228,2.769V61.382z"/>
		<path d="M578.357,45.825v3.281h-2.813v6.271c0,1.269,0.027,2.009,0.081,2.219s0.176,0.383,0.367,0.52
			c0.189,0.137,0.422,0.205,0.695,0.205c0.381,0,0.933-0.132,1.655-0.395l0.352,3.193c-0.957,0.41-2.041,0.615-3.252,0.615
			c-0.742,0-1.411-0.124-2.007-0.373s-1.033-0.572-1.311-0.967c-0.279-0.396-0.472-0.93-0.579-1.604
			c-0.088-0.479-0.132-1.445-0.132-2.901v-6.782h-1.89v-3.281h1.89v-3.091l4.13-2.402v5.493H578.357z"/>
		<path d="M585.154,61.382h-4.116V45.825h3.823v2.212c0.654-1.045,1.242-1.733,1.766-2.065c0.521-0.332,1.115-0.498,1.779-0.498
			c0.937,0,1.841,0.259,2.71,0.776l-1.275,3.589c-0.692-0.449-1.337-0.674-1.933-0.674c-0.576,0-1.065,0.159-1.465,0.476
			c-0.4,0.318-0.716,0.891-0.945,1.721c-0.229,0.831-0.344,2.569-0.344,5.215V61.382z"/>
		<path d="M603.128,61.382v-2.329c-0.566,0.83-1.311,1.484-2.234,1.963c-0.922,0.478-1.896,0.718-2.922,0.718
			c-1.045,0-1.982-0.23-2.813-0.689s-1.431-1.103-1.803-1.934c-0.37-0.83-0.556-1.977-0.556-3.442v-9.844h4.116v7.149
			c0,2.187,0.075,3.528,0.227,4.021c0.151,0.493,0.428,0.884,0.828,1.172s0.908,0.432,1.523,0.432c0.703,0,1.333-0.193,1.89-0.579
			c0.556-0.386,0.938-0.864,1.143-1.435c0.204-0.572,0.308-1.971,0.308-4.197v-6.563h4.116v15.557H603.128z"/>
		<path d="M610.906,45.825h3.794v2.124c1.357-1.65,2.974-2.476,4.849-2.476c0.996,0,1.86,0.206,2.593,0.616
			c0.732,0.41,1.333,1.03,1.802,1.86c0.684-0.83,1.421-1.45,2.212-1.86c0.791-0.41,1.636-0.616,2.534-0.616
			c1.143,0,2.109,0.232,2.9,0.696c0.791,0.464,1.381,1.145,1.772,2.044c0.283,0.664,0.425,1.738,0.425,3.222v9.947h-4.116V52.49
			c0-1.543-0.142-2.539-0.425-2.988c-0.381-0.586-0.967-0.879-1.758-0.879c-0.576,0-1.118,0.176-1.626,0.527
			c-0.508,0.352-0.874,0.867-1.1,1.546c-0.224,0.678-0.336,1.75-0.336,3.215v7.471h-4.116v-8.526c0-1.513-0.073-2.49-0.22-2.929
			c-0.146-0.44-0.374-0.767-0.681-0.982c-0.309-0.215-0.726-0.322-1.253-0.322c-0.635,0-1.206,0.171-1.714,0.513
			c-0.508,0.341-0.871,0.835-1.092,1.479c-0.219,0.645-0.329,1.714-0.329,3.208v7.559h-4.116V45.825z"/>
		<path d="M347.732,79.325h2.285v-1.172c0-1.308,0.139-2.285,0.417-2.931c0.277-0.644,0.791-1.168,1.538-1.573
			c0.747-0.406,1.692-0.608,2.835-0.608c1.172,0,2.319,0.176,3.442,0.527l-0.557,2.871c-0.654-0.156-1.284-0.234-1.89-0.234
			c-0.596,0-1.023,0.139-1.282,0.417c-0.259,0.279-0.388,0.813-0.388,1.604v1.099h3.076v3.237h-3.076v12.32h-4.116v-12.32h-2.285
			V79.325z"/>
		<path d="M369.764,94.883v-2.33c-0.566,0.83-1.312,1.484-2.234,1.963s-1.896,0.717-2.922,0.717c-1.046,0-1.982-0.229-2.813-0.688
			s-1.431-1.104-1.802-1.934s-0.557-1.977-0.557-3.442v-9.844h4.116v7.149c0,2.187,0.075,3.526,0.227,4.021
			c0.151,0.493,0.428,0.883,0.828,1.171c0.4,0.289,0.908,0.434,1.523,0.434c0.703,0,1.333-0.193,1.89-0.58
			c0.557-0.385,0.938-0.863,1.143-1.436c0.205-0.57,0.308-1.97,0.308-4.195v-6.563h4.116v15.558H369.764z M361.59,73.041h3.53v3.53
			h-3.53V73.041z M367.889,73.041h3.545v3.53h-3.545V73.041z"/>
		<path d="M381.79,94.882h-4.116V79.324h3.823v2.213c0.654-1.045,1.242-1.733,1.765-2.064c0.522-0.332,1.116-0.498,1.78-0.498
			c0.938,0,1.841,0.258,2.71,0.775l-1.275,3.589c-0.692-0.448-1.337-0.674-1.933-0.674c-0.576,0-1.064,0.159-1.465,0.476
			c-0.4,0.318-0.716,0.891-0.945,1.721c-0.229,0.832-0.344,2.57-0.344,5.215V94.882z"/>
		<polygon points="397.947,94.882 397.947,73.406 402.283,73.406 402.283,82.943 411.043,73.406 416.873,73.406 408.787,81.771 
			417.313,94.882 411.702,94.882 405.799,84.804 402.283,88.393 402.283,94.882 		"/>
		<path d="M429.764,94.883v-2.33c-0.566,0.83-1.312,1.484-2.234,1.963s-1.896,0.717-2.922,0.717c-1.046,0-1.982-0.229-2.813-0.688
			s-1.431-1.104-1.802-1.934s-0.557-1.977-0.557-3.442v-9.844h4.116v7.149c0,2.187,0.075,3.526,0.227,4.021
			c0.151,0.493,0.428,0.883,0.828,1.171c0.4,0.289,0.908,0.434,1.523,0.434c0.703,0,1.333-0.193,1.89-0.58
			c0.557-0.385,0.938-0.863,1.143-1.436c0.205-0.57,0.308-1.97,0.308-4.195v-6.563h4.116v15.558H429.764z M421.59,73.041h3.53v3.53
			h-3.53V73.041z M427.889,73.041h3.545v3.53h-3.545V73.041z"/>
		<path d="M452,94.882h-4.116v-7.938c0-1.681-0.088-2.768-0.264-3.26c-0.176-0.494-0.462-0.877-0.857-1.15s-0.871-0.41-1.428-0.41
			c-0.713,0-1.353,0.195-1.919,0.586s-0.955,0.908-1.165,1.553s-0.314,1.836-0.314,3.574v7.046h-4.116V79.324h3.823v2.287
			c1.357-1.758,3.066-2.637,5.127-2.637c0.908,0,1.738,0.162,2.49,0.49c0.752,0.327,1.32,0.744,1.706,1.252s0.654,1.084,0.806,1.729
			S452,84.013,452,85.214V94.882z"/>
		<path d="M454.725,90.443l4.131-0.63c0.176,0.801,0.532,1.409,1.069,1.823c0.537,0.416,1.289,0.623,2.256,0.623
			c1.064,0,1.865-0.195,2.402-0.586c0.361-0.273,0.542-0.64,0.542-1.099c0-0.313-0.098-0.571-0.293-0.776
			c-0.205-0.195-0.664-0.377-1.378-0.543c-3.319-0.731-5.424-1.4-6.313-2.006c-1.23-0.84-1.846-2.006-1.846-3.5
			c0-1.349,0.532-2.481,1.597-3.399s2.715-1.377,4.951-1.377c2.129,0,3.711,0.347,4.746,1.04s1.748,1.719,2.139,3.076l-3.882,0.718
			c-0.166-0.604-0.481-1.069-0.945-1.392s-1.125-0.483-1.984-0.483c-1.084,0-1.86,0.151-2.329,0.454
			c-0.313,0.215-0.469,0.494-0.469,0.834c0,0.293,0.137,0.543,0.41,0.748c0.371,0.273,1.652,0.66,3.845,1.158
			s3.724,1.107,4.593,1.83c0.859,0.732,1.289,1.754,1.289,3.062c0,1.426-0.596,2.651-1.787,3.677s-2.954,1.538-5.288,1.538
			c-2.119,0-3.797-0.431-5.032-1.289S455.105,91.918,454.725,90.443"/>
		<path d="M479.993,79.325v3.28h-2.813v6.271c0,1.268,0.026,2.008,0.08,2.219c0.054,0.209,0.176,0.383,0.367,0.52
			c0.189,0.137,0.422,0.205,0.695,0.205c0.381,0,0.933-0.133,1.655-0.395l0.352,3.192c-0.957,0.41-2.041,0.615-3.252,0.615
			c-0.742,0-1.411-0.124-2.007-0.373s-1.033-0.572-1.312-0.968s-0.471-0.93-0.578-1.604c-0.088-0.479-0.132-1.445-0.132-2.9v-6.783
			h-1.89v-3.28h1.89v-3.091l4.131-2.402v5.493H479.993z"/>
		<rect x="482.85" y="73.407" width="4.116" height="21.476"/>
		<path d="M491.185,73.407h4.116v3.81h-4.116V73.407z M491.185,79.325h4.116v15.558h-4.116V79.325z"/>
		<path d="M513.084,83.925l-4.058,0.731c-0.137-0.81-0.447-1.42-0.93-1.83c-0.484-0.41-1.111-0.615-1.883-0.615
			c-1.026,0-1.844,0.354-2.453,1.063c-0.611,0.707-0.916,1.891-0.916,3.551c0,1.847,0.31,3.15,0.93,3.912s1.453,1.143,2.498,1.143
			c0.781,0,1.421-0.223,1.919-0.666c0.497-0.445,0.85-1.209,1.055-2.293l4.043,0.689c-0.42,1.854-1.227,3.256-2.417,4.203
			c-1.191,0.947-2.788,1.422-4.79,1.422c-2.275,0-4.09-0.719-5.442-2.154s-2.028-3.424-2.028-5.963c0-2.567,0.679-4.567,2.036-5.998
			c1.357-1.43,3.193-2.146,5.508-2.146c1.895,0,3.4,0.408,4.52,1.224C511.792,81.012,512.596,82.255,513.084,83.925"/>
		<path d="M520.306,73.407v7.896c1.328-1.553,2.915-2.33,4.761-2.33c0.947,0,1.802,0.177,2.563,0.529
			c0.762,0.35,1.335,0.801,1.722,1.346c0.385,0.547,0.648,1.154,0.791,1.817c0.142,0.664,0.212,1.694,0.212,3.091v9.127h-4.116
			v-8.219c0-1.631-0.079-2.666-0.234-3.105c-0.156-0.439-0.432-0.789-0.828-1.047c-0.395-0.26-0.892-0.389-1.486-0.389
			c-0.684,0-1.294,0.166-1.831,0.498s-0.931,0.832-1.179,1.501c-0.25,0.669-0.374,1.658-0.374,2.968v7.793h-4.116V73.407H520.306z"
			/>
		<path d="M543.538,89.931l4.102,0.688c-0.527,1.504-1.36,2.649-2.498,3.436c-1.138,0.785-2.561,1.179-4.27,1.179
			c-2.705,0-4.707-0.884-6.006-2.651c-1.025-1.416-1.538-3.203-1.538-5.361c0-2.578,0.673-4.598,2.021-6.057
			c1.348-1.461,3.052-2.19,5.112-2.19c2.314,0,4.141,0.764,5.479,2.293c1.338,1.528,1.979,3.868,1.919,7.024h-10.313
			c0.029,1.219,0.361,2.17,0.997,2.849c0.634,0.678,1.425,1.019,2.373,1.019c0.644,0,1.186-0.177,1.625-0.529
			C542.981,91.278,543.313,90.711,543.538,89.931 M543.772,85.771c-0.029-1.19-0.337-2.097-0.923-2.717s-1.299-0.931-2.139-0.931
			c-0.898,0-1.641,0.328-2.227,0.981s-0.874,1.543-0.864,2.666H543.772z"/>
		<rect x="349.432" y="106.907" width="4.336" height="21.476"/>
		<path d="M372.02,128.382h-4.116v-7.938c0-1.681-0.088-2.768-0.264-3.26c-0.176-0.494-0.462-0.877-0.857-1.15
			s-0.871-0.41-1.428-0.41c-0.713,0-1.353,0.195-1.919,0.586s-0.955,0.908-1.165,1.553s-0.314,1.836-0.314,3.574v7.046h-4.116
			v-15.558h3.823v2.287c1.357-1.758,3.066-2.637,5.127-2.637c0.908,0,1.738,0.162,2.49,0.49c0.752,0.327,1.32,0.744,1.706,1.252
			s0.654,1.084,0.805,1.729c0.152,0.645,0.229,1.567,0.229,2.769V128.382z"/>
		<path d="M383.328,112.825v3.28h-2.813v6.271c0,1.269,0.027,2.009,0.081,2.22c0.054,0.209,0.176,0.383,0.366,0.52
			s0.423,0.205,0.696,0.205c0.381,0,0.933-0.133,1.655-0.395l0.352,3.192c-0.957,0.41-2.041,0.615-3.252,0.615
			c-0.742,0-1.411-0.124-2.007-0.373s-1.033-0.572-1.312-0.968s-0.471-0.93-0.579-1.604c-0.087-0.479-0.131-1.445-0.131-2.9v-6.783
			h-1.89v-3.28h1.89v-3.091l4.13-2.402v5.493H383.328z"/>
		<path d="M395.193,123.431l4.102,0.688c-0.527,1.504-1.36,2.649-2.498,3.436c-1.138,0.785-2.561,1.179-4.27,1.179
			c-2.705,0-4.707-0.884-6.006-2.651c-1.025-1.416-1.538-3.203-1.538-5.361c0-2.578,0.673-4.598,2.021-6.057
			c1.348-1.461,3.052-2.19,5.111-2.19c2.315,0,4.142,0.764,5.479,2.293c1.338,1.528,1.978,3.868,1.919,7.024h-10.313
			c0.029,1.219,0.361,2.17,0.996,2.849c0.635,0.678,1.426,1.019,2.373,1.019c0.645,0,1.187-0.177,1.626-0.529
			C394.637,124.778,394.969,124.211,395.193,123.431 M395.428,119.271c-0.029-1.19-0.337-2.097-0.923-2.717s-1.299-0.931-2.14-0.931
			c-0.897,0-1.64,0.328-2.226,0.981s-0.874,1.543-0.864,2.666H395.428z"/>
		<rect x="402.869" y="106.907" width="4.116" height="21.476"/>
		<rect x="411.204" y="106.907" width="4.116" height="21.476"/>
		<path d="M419.539,106.907h4.116v3.81h-4.116V106.907z M419.539,112.825h4.116v15.558h-4.116V112.825z"/>
		<path d="M427.493,129.407l4.702,0.571c0.078,0.547,0.259,0.923,0.542,1.128c0.391,0.293,1.006,0.44,1.846,0.44
			c1.074,0,1.88-0.162,2.417-0.484c0.361-0.215,0.635-0.561,0.82-1.04c0.127-0.343,0.19-0.972,0.19-1.89v-2.271
			c-1.23,1.681-2.783,2.521-4.658,2.521c-2.09,0-3.744-0.885-4.966-2.652c-0.957-1.396-1.436-3.135-1.436-5.215
			c0-2.607,0.627-4.6,1.882-5.977s2.815-2.066,4.681-2.066c1.924,0,3.51,0.846,4.76,2.535v-2.183h3.854v13.96
			c0,1.836-0.151,3.208-0.454,4.116c-0.303,0.907-0.728,1.621-1.274,2.14c-0.547,0.516-1.277,0.922-2.19,1.215
			s-2.067,0.439-3.464,0.439c-2.638,0-4.507-0.452-5.61-1.355c-1.104-0.902-1.655-2.047-1.655-3.435
			C427.479,129.768,427.483,129.602,427.493,129.407 M431.17,120.281c0,1.65,0.319,2.859,0.959,3.625
			c0.64,0.768,1.429,1.15,2.366,1.15c1.006,0,1.855-0.394,2.549-1.18c0.693-0.785,1.04-1.949,1.04-3.492
			c0-1.612-0.332-2.809-0.996-3.59s-1.504-1.172-2.52-1.172c-0.986,0-1.8,0.383-2.439,1.15
			C431.489,117.539,431.17,118.709,431.17,120.281"/>
		<path d="M455.208,123.431l4.102,0.688c-0.527,1.504-1.36,2.649-2.498,3.436c-1.138,0.785-2.561,1.179-4.27,1.179
			c-2.705,0-4.707-0.884-6.006-2.651c-1.025-1.416-1.538-3.203-1.538-5.361c0-2.578,0.673-4.598,2.021-6.057
			c1.348-1.461,3.052-2.19,5.112-2.19c2.314,0,4.141,0.764,5.479,2.293c1.338,1.528,1.979,3.868,1.919,7.024h-10.313
			c0.029,1.219,0.361,2.17,0.997,2.849c0.634,0.678,1.425,1.019,2.372,1.019c0.645,0,1.187-0.177,1.626-0.529
			C454.651,124.778,454.983,124.211,455.208,123.431 M455.442,119.271c-0.029-1.19-0.337-2.097-0.923-2.717
			s-1.299-0.931-2.139-0.931c-0.898,0-1.641,0.328-2.227,0.981s-0.874,1.543-0.864,2.666H455.442z"/>
		<path d="M477.034,128.382h-4.116v-7.938c0-1.681-0.088-2.768-0.264-3.26c-0.176-0.494-0.462-0.877-0.857-1.15
			s-0.871-0.41-1.428-0.41c-0.713,0-1.353,0.195-1.919,0.586s-0.955,0.908-1.165,1.553s-0.314,1.836-0.314,3.574v7.046h-4.116
			v-15.558h3.823v2.287c1.357-1.758,3.066-2.637,5.128-2.637c0.907,0,1.737,0.162,2.489,0.49c0.752,0.327,1.32,0.744,1.707,1.252
			c0.385,0.508,0.653,1.084,0.804,1.729c0.152,0.645,0.229,1.567,0.229,2.769V128.382z"/>
		<path d="M479.554,128.382v-3.208l5.83-6.693c0.957-1.095,1.665-1.871,2.124-2.33c-0.479,0.029-1.108,0.049-1.89,0.059
			l-5.493,0.029v-3.414h12.861v2.916l-5.947,6.855l-2.095,2.27c1.143-0.067,1.851-0.102,2.124-0.102h6.372v3.618H479.554z"/>
		<path d="M514.563,120.486v-3.618h9.346v8.556c-0.907,0.877-2.225,1.651-3.948,2.32s-3.469,1.004-5.236,1.004
			c-2.246,0-4.204-0.471-5.874-1.414c-1.67-0.941-2.925-2.289-3.765-4.043c-0.84-1.753-1.26-3.658-1.26-5.72
			c0-2.235,0.469-4.224,1.406-5.962s2.31-3.071,4.116-3.999c1.377-0.713,3.091-1.069,5.142-1.069c2.666,0,4.748,0.559,6.248,1.678
			c1.498,1.117,2.463,2.664,2.893,4.636l-4.307,0.806c-0.303-1.055-0.871-1.887-1.707-2.498c-0.834-0.609-1.877-0.915-3.127-0.915
			c-1.895,0-3.401,0.601-4.52,1.802s-1.677,2.983-1.677,5.347c0,2.549,0.566,4.461,1.699,5.735c1.133,1.273,2.617,1.912,4.453,1.912
			c0.908,0,1.818-0.18,2.731-0.535c0.913-0.356,1.698-0.789,2.352-1.297v-2.725H514.563z"/>
		<path d="M527.571,112.825h3.794v2.124c1.357-1.65,2.974-2.477,4.849-2.477c0.996,0,1.86,0.207,2.593,0.617
			c0.732,0.409,1.333,1.029,1.802,1.859c0.684-0.83,1.421-1.45,2.212-1.859c0.791-0.41,1.636-0.617,2.534-0.617
			c1.143,0,2.109,0.232,2.9,0.697c0.791,0.463,1.381,1.145,1.772,2.043c0.283,0.664,0.425,1.738,0.425,3.223v9.947h-4.116v-8.893
			c0-1.543-0.142-2.539-0.425-2.988c-0.381-0.586-0.967-0.879-1.758-0.879c-0.576,0-1.118,0.176-1.626,0.527
			s-0.874,0.867-1.099,1.546c-0.225,0.678-0.336,1.75-0.336,3.215v7.472h-4.117v-8.527c0-1.512-0.073-2.489-0.22-2.928
			c-0.146-0.44-0.374-0.768-0.681-0.982c-0.309-0.215-0.726-0.322-1.253-0.322c-0.635,0-1.206,0.172-1.714,0.514
			c-0.508,0.34-0.871,0.834-1.092,1.479c-0.219,0.645-0.329,1.714-0.329,3.208v7.56h-4.116V112.825z"/>
		<path d="M554.378,128.381v-21.473h4.116v7.733c1.27-1.444,2.773-2.168,4.512-2.168c1.895,0,3.462,0.687,4.702,2.058
			c1.24,1.373,1.86,3.342,1.86,5.911c0,2.656-0.633,4.702-1.896,6.138c-1.267,1.436-2.801,2.153-4.607,2.153
			c-0.889,0-1.766-0.222-2.629-0.667c-0.866-0.443-1.609-1.101-2.234-1.97v2.284H554.378z M558.465,120.267
			c0,1.61,0.254,2.804,0.762,3.574c0.713,1.094,1.66,1.641,2.842,1.641c0.908,0,1.682-0.388,2.322-1.165
			c0.638-0.775,0.959-1.999,0.959-3.669c0-1.776-0.323-3.06-0.967-3.845c-0.646-0.786-1.47-1.18-2.476-1.18
			c-0.986,0-1.807,0.383-2.462,1.149C558.792,117.539,558.465,118.705,558.465,120.267"/>
		<polygon points="572.923,128.382 572.923,106.906 577.259,106.906 577.259,115.359 585.755,115.359 585.755,106.906 
			590.091,106.906 590.091,128.382 585.755,128.382 585.755,118.992 577.259,118.992 577.259,128.382 		"/>
	</g>
</g>
</svg>
